<svg width="30" height="28" viewBox="0 0 30 28" fill="none" xmlns="http://www.w3.org/2000/svg">
<path d="M0.744181 24.9301L2.87419 27.0114C3.95144 28.0698 5.18782 27.9984 6.35076 26.7497L19.7551 12.3951L18.5433 11.2058L5.23679 25.4296C4.7961 25.9172 4.37988 26.0361 3.7923 25.4653L2.32332 24.0501C1.73573 23.4911 1.87039 23.0748 2.37229 22.6349L16.756 9.48143L15.5319 8.30406L1.00125 21.5645C-0.235134 22.6823 -0.333065 23.8716 0.744181 24.9301ZM8.7868 2.77393C8.26043 3.27343 8.2237 3.97509 8.51749 4.4508C8.81129 4.89084 9.38663 5.17627 10.1946 4.97409C12.0308 4.55784 13.9404 4.48649 15.7277 5.62819L14.9932 7.4002C14.5648 8.41109 14.7851 9.12465 15.4583 9.79064L18.3351 12.6092C18.9472 13.2039 19.4614 13.2276 20.1714 13.1087L21.5057 12.8709L22.3381 13.6915L22.2891 14.3693C22.2401 14.9759 22.3993 15.4397 23.0113 16.0224L23.9662 16.9263C24.566 17.5091 25.3373 17.5447 25.9248 16.9738L29.5728 13.4179C30.1604 12.8471 30.1359 12.1216 29.536 11.5389L28.5689 10.6112C27.9691 10.0285 27.504 9.83822 26.9042 9.88579L26.1819 9.94526L25.3739 9.17223L25.68 7.80456C25.8391 7.11478 25.6432 6.57961 24.9088 5.86604L22.1545 3.20207C17.9679 -0.84146 12.4103 -0.746318 8.7868 2.77393ZM10.6598 3.22585C13.7079 1.06138 17.8333 1.43005 20.6243 4.1416L23.6724 7.07911C23.9662 7.36453 24.0151 7.59049 23.9294 8.00674L23.5255 9.81443L25.4107 11.6221L26.6471 11.5508C26.9654 11.5389 27.0633 11.5627 27.3081 11.8005L28.0304 12.5022L24.97 15.4754L24.2477 14.7737C24.0029 14.5359 23.9662 14.4407 23.9784 14.1196L24.0641 12.9304L22.1912 11.1226L20.2815 11.4319C19.8775 11.5151 19.6939 11.4795 19.3879 11.194L16.8784 8.75598C16.5601 8.47055 16.5234 8.26837 16.7193 7.81645L17.821 5.27141C15.8624 3.49938 13.3162 2.73825 10.77 3.46371C10.5741 3.51128 10.5006 3.35668 10.6598 3.22585Z" fill="#e67f2a"/>
</svg>
