<svg width="30" height="24" viewBox="0 0 30 24" fill="none" xmlns="http://www.w3.org/2000/svg">
<path d="M5.94673 8.09391C5.8453 8.52933 6.03549 8.7035 6.51732 8.67862C8.54606 8.54177 10.9552 8.42981 15 8.42981C19.0575 8.42981 21.4665 8.54177 23.4953 8.67862C23.9644 8.7035 24.1546 8.52933 24.0533 8.09391C23.7489 6.77524 23.1657 5.05847 22.7599 4.37425C22.4303 3.81442 22.0625 3.56562 21.4031 3.47854C20.4903 3.35413 18.4108 3.26705 15 3.26705C11.6019 3.26705 9.52239 3.35413 8.59677 3.47854C7.93744 3.56562 7.56972 3.81442 7.24006 4.37425C6.83431 5.05847 6.26372 6.77524 5.94673 8.09391ZM5.85798 16.5659C7.01183 16.5659 7.8994 15.6949 7.8994 14.5629C7.8994 13.4184 7.01183 12.56 5.85798 12.56C4.70414 12.56 3.81656 13.4184 3.81656 14.5629C3.81656 15.6949 4.70414 16.5659 5.85798 16.5659ZM11.6525 16.0682H18.3601C19.2223 16.0682 19.8182 15.4835 19.8182 14.6251C19.8182 13.7792 19.2223 13.1945 18.3601 13.1945H11.6525C10.7777 13.1945 10.1817 13.7792 10.1817 14.6251C10.1817 15.4835 10.7777 16.0682 11.6525 16.0682ZM24.142 16.5659C25.3085 16.5659 26.1834 15.6949 26.1834 14.5629C26.1834 13.4184 25.3085 12.56 24.142 12.56C22.9881 12.56 22.1132 13.4184 22.1132 14.5629C22.1132 15.6949 22.9881 16.5659 24.142 16.5659ZM15 19.9247C19.2603 19.9247 24.9282 19.7132 27.3246 19.4396C29.049 19.2529 30 18.3199 30 16.7275V14.538C30 12.4356 29.5688 11.2662 28.4023 9.77337L27.3246 8.41737C26.8681 6.1781 26.0186 3.82687 25.5874 2.90629C24.9027 1.50052 23.5968 0.667013 21.9104 0.443086C21.0608 0.331123 18.284 0.268921 15 0.268921C11.7286 0.268921 8.95181 0.343563 8.10227 0.443086C6.41589 0.642132 5.09721 1.50052 4.42518 2.90629C3.9814 3.82687 3.14454 6.1781 2.6754 8.41737L1.61031 9.77337C0.431107 11.2662 0 12.4356 0 14.538V16.7275C0 18.3199 0.963651 19.2529 2.6754 19.4396C5.08453 19.7132 10.7396 19.9247 15 19.9247ZM15 18.2951C10.6889 18.2951 5.1606 18.096 3.11918 17.8472C2.04142 17.7228 1.66103 17.1754 1.66103 16.23V14.538C1.66103 12.8337 1.93998 12.0375 2.92899 10.7686L4.22231 9.10159C4.56466 7.29773 5.38884 4.78478 5.93406 3.64026C6.33981 2.78188 7.13863 2.24694 8.29246 2.1101C9.10396 2.01057 11.678 1.89861 15 1.89861C18.3347 1.89861 20.9467 2.01057 21.6822 2.1101C22.874 2.25938 23.6602 2.79432 24.0786 3.64026C24.6238 4.78478 25.4479 7.29773 25.7776 9.10159L27.0836 10.7686C28.06 12.0375 28.3389 12.8337 28.3389 14.538V16.23C28.3389 17.1754 27.9585 17.7228 26.8808 17.8472C24.8521 18.096 19.3111 18.2951 15 18.2951ZM2.33305 23.3458H3.81656C4.76753 23.3458 5.50295 22.6243 5.50295 21.7037V18.7428L0.64666 18.0586V21.7037C0.64666 22.6243 1.38207 23.3458 2.33305 23.3458ZM26.1834 23.3458H27.6796C28.6305 23.3458 29.3533 22.6243 29.3533 21.7037V18.0586L24.5096 18.7428V21.7037C24.5096 22.6243 25.2324 23.3458 26.1834 23.3458Z" fill="#FF8739"/>
</svg>
