<svg width="60" height="60" viewBox="0 0 60 60" fill="none" xmlns="http://www.w3.org/2000/svg">
<path d="M30 52.5938C23.6719 52.5938 17.7187 50.1094 13.2656 45.6563C8.8125 41.2031 6.32812 35.25 6.32812 28.9219C6.32812 22.5938 8.8125 16.6406 13.2656 12.1875C17.7187 7.73438 23.6719 5.25 30 5.25C36.3281 5.25 42.2812 7.73438 46.7344 12.1875C55.9687 21.4219 55.9687 36.4219 46.7344 45.6563C42.2812 50.1094 36.3281 52.5938 30 52.5938ZM30 8.0625C24.4219 8.0625 19.1719 10.2188 15.2344 14.1562C11.2969 18.0937 9.14062 23.3438 9.14062 28.9219C9.14062 34.5 11.2969 39.75 15.2344 43.6875C19.1719 47.625 24.4219 49.7812 30 49.7812C35.5781 49.7812 40.8281 47.625 44.7656 43.6875C52.9219 35.5313 52.9219 22.3125 44.7656 14.1562C40.8281 10.2188 35.5781 8.0625 30 8.0625Z" fill="#FF8739"/>
<path d="M41.4769 19.3001L20.3963 40.3803L18.54 38.524L39.6207 17.4438L41.4769 19.3001Z" fill="#FF8739"/>
<path d="M19.2188 19.9687L21.0938 18.1406L41.4844 38.5312L39.6094 40.4062L19.2188 19.9687Z" fill="#FF8739"/>
</svg>
