<svg width="30" height="29" viewBox="0 0 30 29" fill="none" xmlns="http://www.w3.org/2000/svg">
<path d="M16.2899 21.5612C19.1501 21.5612 21.2315 19.9408 21.2315 17.6805C21.2315 15.7742 20.1975 14.7529 17.6328 14.1266L15.726 13.6499C14.222 13.2687 13.5775 12.7377 13.5775 11.8253C13.5775 10.6815 14.6249 9.89179 16.1826 9.89179C17.5924 9.89179 18.4518 10.5045 18.9219 11.8117C19.1367 12.2883 19.4993 12.5062 19.8752 12.5062C20.5735 12.5062 20.9764 11.8798 20.7346 11.0628C20.3587 9.61945 18.7474 8.0944 16.1826 8.0944C13.4567 8.0944 11.5096 9.68754 11.5096 11.907C11.5096 13.7725 12.6913 14.9163 15.1486 15.5018L17.0688 15.9648C18.5727 16.3188 19.1367 16.8362 19.1367 17.8303C19.1367 19.0013 18.0221 19.7639 16.2899 19.7639C14.7189 19.7639 13.7655 19.1647 13.2821 17.8711C13.0806 17.4081 12.7181 17.1903 12.3421 17.1903C11.6574 17.1903 11.2948 17.7486 11.4425 18.5656C11.7647 20.2404 13.6984 21.5612 16.2899 21.5612ZM15.4977 22.8957C15.4977 23.345 15.8603 23.7262 16.3034 23.7262C16.7466 23.7262 17.1225 23.345 17.1225 22.8957V6.73274C17.1225 6.28339 16.7466 5.90212 16.3034 5.90212C15.8603 5.90212 15.4977 6.28339 15.4977 6.73274V22.8957ZM16.3034 28.6962C23.7828 28.6962 30 22.3918 30 14.8073C30 7.20932 23.7828 0.918457 16.3034 0.918457C8.81058 0.918457 2.60685 7.1957 2.60685 14.7938H4.88961C4.88961 8.36673 9.96538 3.2469 16.3034 3.2469C22.6414 3.2469 27.7172 8.38035 27.7172 14.8073C27.7172 21.2344 22.6414 26.4087 16.3034 26.3815C12.4764 26.3678 9.11942 24.4888 7.06494 21.5885C6.64867 21.0302 6.01755 20.8531 5.45358 21.1935C4.91646 21.534 4.76875 22.2829 5.2253 22.882C7.77663 26.3542 11.7781 28.6962 16.3034 28.6962ZM0.955199 12.1794C-0.0116162 12.1794 -0.25332 12.8466 0.270372 13.6091L3.27825 17.9391C3.72136 18.5656 4.36591 18.552 4.7956 17.9391L7.80347 13.5955C8.31375 12.8466 8.07204 12.1794 7.11865 12.1794H0.955199Z" fill="#FF8739"/>
</svg>
