<svg width="30" height="31" viewBox="0 0 30 31" fill="none" xmlns="http://www.w3.org/2000/svg">
<path d="M9.62558 18.271L10.8376 17.0729L2.46679 8.58473C1.54511 7.65434 1.55774 6.68572 2.46679 5.75533L4.24702 3.94553C5.14344 3.02788 6.12825 3.04063 7.04993 3.95828L16.0647 13.0455L17.3273 11.9112L8.37563 2.81122C6.59541 1.02691 4.70155 1.02691 2.97182 2.77298L1.2926 4.46808C-0.437127 6.21414 -0.437127 8.12591 1.33048 9.91022L9.62558 18.271ZM8.80491 12.5994C8.99429 12.7906 9.29731 12.7906 9.47407 12.5994C9.65084 12.421 9.66345 12.1278 9.47407 11.9366L4.75205 7.17003C4.58792 7.01709 4.27227 6.9916 4.08289 7.17003C3.90612 7.37395 3.8935 7.67983 4.08289 7.85826L8.80491 12.5994ZM10.3579 11.0445C10.5346 11.2357 10.863 11.2102 11.027 11.0445C11.2164 10.8279 11.2164 10.5347 11.0396 10.3563L6.31764 5.60238C6.12825 5.41121 5.82523 5.42395 5.6611 5.60238C5.47172 5.79357 5.48434 6.0867 5.6611 6.26513L10.3579 11.0445ZM26.6072 30.5955L28.8672 28.3141C29.1324 28.0337 29.0944 27.6258 28.842 27.2307L26.2031 23.2543C25.938 22.8592 25.534 22.5788 25.0795 22.5151L23.9432 22.3366L17.8197 16.1552L16.6454 17.5191L23.2109 24.121L24.625 24.3631L27.0365 27.6004L25.8876 28.7602L22.6932 26.3259L22.4406 24.8984L15.9385 18.3219L14.7516 19.6729L20.6731 25.6376L20.8499 26.7847C20.913 27.2436 21.2034 27.6514 21.5822 27.9062L25.534 30.6082C25.938 30.8758 26.3294 30.8759 26.6072 30.5955ZM1.97439 29.0916C4.17127 31.2837 7.11306 31.3091 9.27206 29.117C12.0497 26.2877 11.5447 23.0758 20.4585 14.116L19.36 12.9945C9.63821 22.8465 11.1154 24.6818 7.98424 27.8425C6.58278 29.2699 4.68892 29.2828 3.22433 27.8298C1.77238 26.3386 1.79762 24.4396 3.18646 23.0249C6.34289 19.8514 8.16099 21.3553 17.908 11.5416L16.8096 10.4328C7.93374 19.4308 4.75205 18.921 1.94914 21.7121C-0.235115 23.8915 -0.209865 26.8739 1.97439 29.0916ZM5.57272 27.0651C6.43127 27.0651 7.13831 26.3513 7.13831 25.4847C7.13831 24.618 6.43127 23.9171 5.57272 23.9171C4.71417 23.9171 4.01975 24.618 4.01975 25.4847C4.01975 26.3513 4.71417 27.0651 5.57272 27.0651ZM17.6808 13.2239C20.5721 16.1425 25.1805 16.2445 27.9834 13.4278C30.2561 11.1338 30.6474 7.51415 28.9556 4.58278L27.7309 5.83179C28.7915 8.02395 28.438 10.573 26.7966 12.2426C24.6628 14.3965 21.1276 14.2945 18.8676 12.0387C16.6202 9.77003 16.5319 6.17592 18.6783 4.03474C20.3196 2.37788 22.8826 2.02103 24.9911 3.10435L26.2284 1.85533C23.3498 0.160242 19.7767 0.542594 17.504 2.84945C14.7138 5.65337 14.8021 10.3053 17.6808 13.2239ZM21.5064 7.5014L23.375 9.37492C24.3093 10.3181 25.5087 10.3436 26.3925 9.43865L29.044 6.74944L27.9329 5.64062L25.5214 8.04943C25.1805 8.39355 24.7512 8.41905 24.385 8.04943L22.8447 6.4818C22.4786 6.09945 22.4406 5.65337 22.7816 5.30925L25.2184 2.87494L24.0695 1.75337L21.4433 4.41709C20.509 5.34748 20.5342 6.54552 21.5064 7.5014Z" fill="#f5f5f5"/>
</svg>
