<svg width="103" height="28" viewBox="0 0 103 28" fill="none" xmlns="http://www.w3.org/2000/svg">
<path d="M6.04958 27.2807C5.49847 27.2451 4.96514 27.1473 4.44958 26.9873C3.93403 26.8095 3.45403 26.5607 3.00958 26.2407C2.76069 26.0629 2.51181 25.8584 2.26292 25.6273C2.03181 25.3962 1.82736 25.1562 1.64958 24.9073C1.22292 24.3029 0.894028 23.654 0.662917 22.9607C0.431806 22.2673 0.280694 21.5562 0.209583 20.8273C0.138472 20.0984 0.138472 19.3695 0.209583 18.6407C0.298472 17.894 0.440694 17.174 0.63625 16.4807C0.814028 15.7695 1.07181 15.0495 1.40958 14.3207C2.12069 12.774 2.93847 11.334 3.86292 10.0007C4.78736 8.64954 5.86292 7.38732 7.08958 6.21398C7.42736 5.89398 7.77403 5.59176 8.12958 5.30732C8.48514 5.00509 8.84069 4.70287 9.19625 4.40065C9.76514 3.95621 10.3429 3.53843 10.9296 3.14732C11.534 2.75621 12.1474 2.39176 12.7696 2.05398C12.9829 1.94732 13.1963 1.85843 13.4096 1.78732C13.6229 1.71621 13.8274 1.63621 14.0229 1.54732C14.574 1.29843 15.1518 1.09398 15.7563 0.933983C16.3607 0.773983 16.9651 0.676205 17.5696 0.64065C18.1385 0.622872 18.6807 0.667316 19.1963 0.773983C19.7296 0.862872 20.2274 1.08509 20.6896 1.44065C21.1518 1.79621 21.5074 2.22287 21.7563 2.72065C22.0051 3.21843 22.1562 3.75176 22.2096 4.32065C22.2807 5.28065 22.1651 6.21398 21.8629 7.12065C21.5785 8.02732 21.1874 8.88065 20.6896 9.68065C20.2451 10.3918 19.7563 11.094 19.2229 11.7873C18.6896 12.4629 18.0851 13.0495 17.4096 13.5473C17.054 13.814 16.6363 14.0629 16.1562 14.294C15.694 14.5251 15.2051 14.7029 14.6896 14.8273C14.1918 14.9518 13.6851 15.0051 13.1696 14.9873C12.6718 14.9518 12.2185 14.8007 11.8096 14.534C11.3296 14.2318 11.0096 13.8407 10.8496 13.3607C10.6896 12.8629 10.6274 12.3473 10.6629 11.814C10.6985 11.2807 10.8229 10.7562 11.0363 10.2407C11.2496 9.7251 11.4896 9.28065 11.7563 8.90732C12.1118 8.42732 12.5296 8.00954 13.0096 7.65398C13.0985 7.58287 13.3118 7.44954 13.6496 7.25398C13.9874 7.05843 14.334 6.89843 14.6896 6.77398C15.0629 6.63176 15.3918 6.56954 15.6763 6.58732C15.9607 6.58732 16.1029 6.75621 16.1029 7.09398C16.1029 7.23621 16.0496 7.36954 15.9429 7.49398C15.854 7.61843 15.7385 7.7251 15.5963 7.81398C15.454 7.90287 15.3029 7.99176 15.1429 8.08065C15.0007 8.15176 14.8763 8.21398 14.7696 8.26732C14.4674 8.44509 14.1918 8.64065 13.9429 8.85398C13.7118 9.04954 13.5074 9.29843 13.3296 9.60065C13.134 9.92065 13.0096 10.2762 12.9563 10.6673C12.9207 11.0584 12.9651 11.4229 13.0896 11.7607C13.214 12.0807 13.4185 12.3473 13.7029 12.5607C13.9874 12.774 14.3607 12.8807 14.8229 12.8807C15.1963 12.8629 15.5607 12.774 15.9163 12.614C16.2718 12.4362 16.5918 12.2407 16.8763 12.0273C17.5696 11.494 18.1829 10.8184 18.7163 10.0007C19.2496 9.18287 19.614 8.34732 19.8096 7.49398C19.9163 7.03176 19.9607 6.53398 19.9429 6.00065C19.9251 5.44954 19.8185 4.95176 19.6229 4.50732C19.3918 3.97398 19.054 3.57398 18.6096 3.30732C18.1829 3.02287 17.7029 2.84509 17.1696 2.77398C16.6363 2.68509 16.094 2.68509 15.5429 2.77398C14.9918 2.86287 14.4851 2.99621 14.0229 3.17398C12.7429 3.68954 11.5607 4.43621 10.4763 5.41398C9.40958 6.37398 8.47625 7.4051 7.67625 8.50732C6.94736 9.52065 6.30736 10.614 5.75625 11.7873C5.22292 12.9429 4.79625 14.1162 4.47625 15.3073C4.29847 16.0007 4.16514 16.7118 4.07625 17.4407C4.02292 17.8851 3.98736 18.3295 3.96958 18.774C3.96958 19.2007 4.00514 19.6362 4.07625 20.0807C4.16514 20.7207 4.34292 21.3073 4.60958 21.8407C4.87625 22.3562 5.28514 22.8095 5.83625 23.2007C6.35181 23.574 6.91181 23.814 7.51625 23.9207C8.12069 24.0095 8.72514 24.0184 9.32958 23.9473C9.95181 23.8762 10.5562 23.7429 11.1429 23.5473C11.7474 23.334 12.3163 23.1029 12.8496 22.854C13.8096 22.4095 14.7074 21.8584 15.5429 21.2007C16.3785 20.5251 17.1074 19.7607 17.7296 18.9073C17.8185 18.7829 17.9429 18.5695 18.1029 18.2673C18.2629 17.9651 18.4407 17.6718 18.6362 17.3873C18.8318 17.0851 19.0274 16.8362 19.2229 16.6407C19.4363 16.4273 19.6407 16.3651 19.8363 16.454C19.9963 16.5073 20.0763 16.6051 20.0763 16.7473C20.094 16.8718 20.0674 17.0051 19.9963 17.1473C19.9429 17.2895 19.8718 17.4318 19.7829 17.574C19.694 17.6984 19.6229 17.7962 19.5696 17.8673C19.3385 18.2229 19.1251 18.5784 18.9296 18.934C18.734 19.2895 18.5118 19.6362 18.2629 19.974C17.9251 20.454 17.5518 20.9162 17.1429 21.3607C16.734 21.7873 16.3251 22.2051 15.9163 22.614C14.9918 23.5562 13.9785 24.3918 12.8763 25.1207C11.7918 25.8495 10.6274 26.4273 9.38292 26.854C8.86736 27.0318 8.32514 27.1562 7.75625 27.2273C7.18736 27.2984 6.61847 27.3162 6.04958 27.2807ZM16.1054 27.254C16.0699 27.2362 16.0521 27.2273 16.0521 27.2273C15.7321 27.1207 15.4743 26.9518 15.2788 26.7207C15.101 26.4718 14.9676 26.1962 14.8787 25.894C14.7899 25.5918 14.7365 25.2807 14.7188 24.9607C14.7188 24.6229 14.7365 24.3118 14.7721 24.0273C14.8254 23.6007 14.9232 23.1562 15.0654 22.694C15.261 22.1073 15.5187 21.5384 15.8388 20.9873C16.3188 20.1873 16.8343 19.4229 17.3854 18.694C17.9365 17.9651 18.5676 17.2895 19.2787 16.6673C19.4743 16.4895 19.6788 16.3207 19.8921 16.1607C20.1054 16.0007 20.3276 15.8407 20.5588 15.6807C20.8965 15.4673 21.2343 15.2629 21.5721 15.0673C21.9276 14.8718 22.301 14.7029 22.6921 14.5607C23.0121 14.4362 23.3321 14.3118 23.6521 14.1873C23.9899 14.0629 24.3365 14.0007 24.6921 14.0007C24.8521 14.0184 25.0121 14.0362 25.1721 14.054C25.3499 14.0718 25.5188 14.1073 25.6788 14.1607C25.9276 14.2318 26.0965 14.374 26.1854 14.5873C26.2921 14.8007 26.4165 15.0051 26.5588 15.2007C26.541 15.1651 26.5765 15.0762 26.6654 14.934C26.7721 14.774 26.8432 14.6762 26.8787 14.6407C26.9854 14.4629 27.1454 14.3295 27.3588 14.2407C27.6254 14.134 27.9188 14.0895 28.2388 14.1073C28.5765 14.1251 28.8965 14.1251 29.1988 14.1073C29.341 14.1073 29.4832 14.0807 29.6254 14.0273C29.7676 13.9562 29.9099 13.9651 30.0521 14.054C30.141 14.1073 30.1943 14.1784 30.2121 14.2673C30.2299 14.3562 30.221 14.4451 30.1854 14.534C30.1499 14.6051 30.1054 14.6851 30.0521 14.774C29.9988 14.8629 29.9543 14.934 29.9188 14.9873C29.3676 15.8051 28.8521 16.6407 28.3721 17.494C27.8921 18.3295 27.4032 19.174 26.9054 20.0273C26.7632 20.2762 26.621 20.5251 26.4788 20.774C26.3365 21.0229 26.1854 21.2718 26.0254 21.5207C25.7054 22.0362 25.3676 22.5695 25.0121 23.1207C24.6565 23.6718 24.4076 24.2584 24.2654 24.8807C24.2299 24.9873 24.2121 25.1118 24.2121 25.254C24.2121 25.3962 24.2832 25.5029 24.4254 25.574C24.5321 25.6273 24.6565 25.6362 24.7987 25.6007C24.941 25.5473 25.0832 25.4762 25.2254 25.3873C25.3676 25.2807 25.501 25.174 25.6254 25.0673C25.7499 24.9607 25.8476 24.8807 25.9187 24.8273C26.3099 24.454 26.6832 24.0807 27.0388 23.7073C27.3943 23.334 27.7499 22.9429 28.1054 22.534C28.4076 22.1784 28.701 21.8229 28.9854 21.4673C29.2699 21.1118 29.5365 20.7384 29.7854 20.3473C29.821 20.294 29.8654 20.2229 29.9188 20.134C29.9899 20.0273 30.061 19.9473 30.1321 19.894C30.221 19.8229 30.301 19.7873 30.3721 19.7873C30.461 19.7695 30.541 19.814 30.6121 19.9207C30.6654 20.0095 30.6743 20.1073 30.6388 20.214C30.621 20.3029 30.5765 20.4007 30.5054 20.5073C30.4521 20.5962 30.3899 20.6851 30.3188 20.774C30.2476 20.8451 30.1854 20.9073 30.1321 20.9607C29.9543 21.174 29.7854 21.3962 29.6254 21.6273C29.4654 21.8584 29.2876 22.0807 29.0921 22.294C28.9676 22.4718 28.8343 22.6407 28.6921 22.8007C28.5676 22.9607 28.4343 23.1207 28.2921 23.2807C27.9721 23.654 27.6432 24.0273 27.3054 24.4007C26.9854 24.7562 26.6565 25.1118 26.3188 25.4673C26.0876 25.7162 25.7943 25.9918 25.4388 26.294C25.101 26.5784 24.7365 26.8184 24.3454 27.014C23.9543 27.1918 23.5632 27.2895 23.1721 27.3073C22.781 27.3251 22.4254 27.174 22.1054 26.854C21.8032 26.5695 21.6076 26.2229 21.5188 25.814C21.4476 25.4051 21.4565 25.0051 21.5454 24.614C21.581 24.5251 21.6165 24.4362 21.6521 24.3473C21.6876 24.2584 21.6965 24.1695 21.6788 24.0807C21.5899 24.0984 21.501 24.1607 21.4121 24.2673C21.341 24.3562 21.2699 24.4362 21.1988 24.5073C21.0565 24.6318 20.9232 24.7562 20.7987 24.8807C20.6921 25.0051 20.5765 25.1384 20.4521 25.2807C19.901 25.8673 19.2788 26.3562 18.5854 26.7473C18.2299 26.9607 17.8299 27.1295 17.3854 27.254C16.941 27.3607 16.5143 27.3607 16.1054 27.254ZM18.5588 25.3873C19.0388 25.1562 19.4654 24.8629 19.8387 24.5073C20.2299 24.134 20.5943 23.7429 20.9321 23.334C21.501 22.6229 22.0432 21.9029 22.5588 21.174C23.0743 20.4273 23.5543 19.654 23.9988 18.854C24.1943 18.4984 24.3899 18.1429 24.5854 17.7873C24.781 17.4318 24.9499 17.0584 25.0921 16.6673C25.1632 16.4362 25.2165 16.1873 25.2521 15.9207C25.3054 15.654 25.2521 15.414 25.0921 15.2007C24.8965 14.9518 24.6388 14.8629 24.3188 14.934C23.9988 15.0051 23.7232 15.1029 23.4921 15.2273C22.8521 15.5829 22.2743 16.0718 21.7587 16.694C21.261 17.3162 20.7988 17.9207 20.3721 18.5073C20.1232 18.8273 19.8921 19.1562 19.6788 19.494C19.4654 19.8318 19.2432 20.1695 19.0121 20.5073C18.781 20.8451 18.5676 21.1918 18.3721 21.5473C18.1765 21.9029 17.981 22.2673 17.7854 22.6407C17.7143 22.8007 17.6254 22.9784 17.5187 23.174C17.4299 23.3695 17.3499 23.574 17.2787 23.7873C17.2076 24.0007 17.1543 24.214 17.1188 24.4273C17.101 24.6229 17.1365 24.8095 17.2254 24.9873C17.3676 25.2895 17.5543 25.4673 17.7854 25.5207C18.0165 25.5562 18.2743 25.5118 18.5588 25.3873ZM23.9242 27.0673C23.8175 26.8184 23.8531 26.6051 24.0308 26.4273C24.2086 26.2495 24.3953 26.1073 24.5908 26.0007C24.8219 25.8584 25.0531 25.7251 25.2842 25.6007C25.5331 25.4584 25.7731 25.2984 26.0042 25.1207C26.4842 24.7473 26.9197 24.3295 27.3108 23.8673C27.7197 23.3873 28.0931 22.8895 28.4308 22.374C28.6975 21.9829 28.9642 21.6095 29.2308 21.254C29.5153 20.8807 29.7908 20.4984 30.0575 20.1073C30.3242 19.6984 30.5819 19.2984 30.8308 18.9073C31.0797 18.4984 31.3375 18.0895 31.6042 17.6807C31.9242 17.1829 32.2086 16.6762 32.4575 16.1607C32.7064 15.6273 32.9819 15.1118 33.2842 14.614C33.4264 14.3651 33.5775 14.1784 33.7375 14.054C33.9153 13.9295 34.1464 13.9651 34.4308 14.1607C35.0531 14.5695 35.6931 14.7384 36.3508 14.6673C37.0086 14.5962 37.6753 14.4629 38.3508 14.2673C38.5464 14.214 38.7331 14.2229 38.9108 14.294C39.0886 14.3651 39.1686 14.5251 39.1508 14.774C39.1331 15.0229 39.0175 15.2629 38.8042 15.494C38.5908 15.7073 38.4131 15.9029 38.2708 16.0807C38.0575 16.3295 37.8531 16.5784 37.6575 16.8273C37.4619 17.0584 37.2664 17.2984 37.0708 17.5473C36.2886 18.5962 35.5864 19.654 34.9642 20.7207C34.7686 21.0407 34.5819 21.3607 34.4042 21.6807C34.2442 22.0007 34.0931 22.3207 33.9508 22.6407C33.8975 22.7295 33.8175 22.9073 33.7108 23.174C33.6042 23.4229 33.5153 23.6895 33.4442 23.974C33.3731 24.2584 33.3375 24.5162 33.3375 24.7473C33.3553 24.9784 33.4619 25.1207 33.6575 25.174C33.8531 25.2273 34.0397 25.2273 34.2175 25.174C34.4131 25.1029 34.5997 25.014 34.7775 24.9073C34.9553 24.7829 35.1153 24.6495 35.2575 24.5073C35.4175 24.3473 35.5597 24.2051 35.6842 24.0807C36.2353 23.5118 36.7331 22.8984 37.1775 22.2407C37.6397 21.5829 38.1019 20.9429 38.5642 20.3207C38.6531 20.1962 38.7686 20.0273 38.9108 19.814C39.0708 19.6007 39.2397 19.5029 39.4175 19.5207C39.6308 19.5384 39.7197 19.6451 39.6842 19.8407C39.6664 20.0184 39.5953 20.2229 39.4708 20.454C39.3464 20.6673 39.2042 20.8718 39.0442 21.0673C38.9019 21.2629 38.8042 21.3873 38.7508 21.4407C38.5019 21.7607 38.2531 22.0807 38.0042 22.4007C37.7553 22.7029 37.5064 23.0051 37.2575 23.3073C37.0619 23.574 36.8575 23.8495 36.6442 24.134C36.4308 24.4007 36.2175 24.6584 36.0042 24.9073C35.5419 25.4407 35.0264 25.9384 34.4575 26.4007C33.9064 26.8451 33.2664 27.1384 32.5375 27.2807C32.2886 27.3162 32.0308 27.3251 31.7642 27.3073C31.5153 27.2895 31.2842 27.2362 31.0708 27.1473C30.8575 27.0584 30.6619 26.934 30.4842 26.774C30.3242 26.5962 30.2086 26.374 30.1375 26.1073C30.0486 25.7873 30.0131 25.4762 30.0308 25.174C30.0486 24.854 30.1019 24.5429 30.1908 24.2407C30.2797 23.9384 30.3864 23.6362 30.5108 23.334C30.6353 23.0318 30.7686 22.7473 30.9108 22.4807C31.3019 21.6807 31.8086 20.934 32.4308 20.2407C33.0531 19.5473 33.6753 18.8895 34.2975 18.2673C34.4042 18.1607 34.5642 18.0273 34.7775 17.8673C35.0086 17.7073 35.1508 17.5562 35.2042 17.414C35.2575 17.3073 35.2575 17.2451 35.2042 17.2273C35.1686 17.1918 35.1064 17.174 35.0175 17.174C34.9464 17.174 34.8575 17.1829 34.7508 17.2007C34.6619 17.2184 34.5908 17.2273 34.5375 17.2273C34.3597 17.2273 34.1908 17.1829 34.0308 17.094C33.8708 17.0051 33.7019 16.9429 33.5242 16.9073C33.2753 16.8718 33.0797 16.9251 32.9375 17.0673C32.8131 17.2095 32.6886 17.3784 32.5642 17.574C32.4042 17.8229 32.2442 18.0807 32.0842 18.3473C31.9242 18.614 31.7642 18.8807 31.6042 19.1473C31.2664 19.7162 30.9197 20.2762 30.5642 20.8273C30.2264 21.3607 29.8619 21.894 29.4708 22.4273C29.2575 22.7295 29.0353 23.0229 28.8042 23.3073C28.5731 23.5918 28.3331 23.8762 28.0842 24.1607C28.0131 24.2318 27.8797 24.3829 27.6842 24.614C27.4886 24.8451 27.2486 25.1029 26.9642 25.3873C26.6975 25.6718 26.4042 25.9562 26.0842 26.2407C25.7642 26.5251 25.4619 26.7651 25.1775 26.9607C24.8931 27.1562 24.6353 27.2718 24.4042 27.3073C24.1731 27.3429 24.0131 27.2629 23.9242 27.0673ZM37.8125 27.3073H37.7858C37.6081 27.2718 37.4303 27.2362 37.2525 27.2007C37.0747 27.1473 36.9058 27.0762 36.7458 26.9873C36.6036 26.8984 36.4703 26.7918 36.3458 26.6673C36.2392 26.5251 36.1592 26.3562 36.1058 26.1607C36.0169 25.8407 36.0436 25.5207 36.1858 25.2007C36.3281 24.8629 36.5325 24.5962 36.7992 24.4007C37.1014 24.1873 37.3147 24.1518 37.4392 24.294C37.5636 24.4362 37.6614 24.6407 37.7325 24.9073C37.8036 25.174 37.8747 25.4495 37.9458 25.734C38.0169 26.0184 38.1503 26.1962 38.3458 26.2673C38.5414 26.3384 38.7369 26.3207 38.9325 26.214C39.1458 26.1073 39.3414 25.9651 39.5192 25.7873C39.6969 25.5918 39.8569 25.3873 39.9992 25.174C40.1414 24.9607 40.2569 24.7829 40.3458 24.6407C40.6481 24.1251 40.8881 23.5829 41.0658 23.014C41.2614 22.4451 41.4303 21.8762 41.5725 21.3073C41.7681 20.5429 41.9725 19.7695 42.1858 18.9873C42.4169 18.1873 42.5769 17.3873 42.6658 16.5873C42.5769 16.6407 42.4881 16.7295 42.3992 16.854C42.3103 16.9784 42.2481 17.0851 42.2125 17.174C42.1058 17.3162 41.9992 17.4495 41.8925 17.574C41.7858 17.6807 41.6792 17.8051 41.5725 17.9473C41.3769 18.1962 41.1903 18.454 41.0125 18.7207C40.8525 18.9695 40.6747 19.2184 40.4792 19.4673C40.1236 19.9295 39.7503 20.4184 39.3592 20.934C38.9858 21.4318 38.6125 21.9207 38.2392 22.4007C37.9014 22.8095 37.5636 23.2362 37.2258 23.6807C36.8881 24.1251 36.5325 24.5607 36.1592 24.9873C35.7858 25.3962 35.3947 25.7873 34.9858 26.1607C34.5947 26.534 34.1681 26.854 33.7058 27.1207C33.5992 27.2095 33.4569 27.2807 33.2792 27.334C33.1014 27.3873 32.9414 27.3784 32.7992 27.3073C32.7103 27.254 32.6569 27.1829 32.6392 27.094C32.6214 27.0051 32.6214 26.9073 32.6392 26.8007C32.6569 26.694 32.6836 26.5962 32.7192 26.5073C32.7725 26.4007 32.8169 26.3118 32.8525 26.2407C32.9414 26.0807 33.0658 25.9651 33.2258 25.894C33.3858 25.8229 33.5458 25.7429 33.7058 25.654C33.8836 25.5651 34.0436 25.4762 34.1858 25.3873C34.3458 25.2807 34.4969 25.1651 34.6392 25.0407C34.9947 24.774 35.3147 24.4895 35.5992 24.1873C35.9014 23.8673 36.1947 23.5384 36.4792 23.2007C36.8703 22.7384 37.2703 22.2851 37.6792 21.8407C38.0881 21.3784 38.4792 20.9162 38.8525 20.454C39.2614 19.9562 39.6525 19.4584 40.0258 18.9607C40.3992 18.4451 40.7725 17.9295 41.1458 17.414C41.4658 16.9695 41.7681 16.5251 42.0525 16.0807C42.3547 15.6184 42.6747 15.1651 43.0125 14.7207C43.1547 14.5251 43.2881 14.3651 43.4125 14.2407C43.5547 14.0984 43.7414 13.9918 43.9725 13.9207C44.2036 13.8495 44.4258 13.8229 44.6392 13.8407C44.8703 13.8407 45.1014 13.8318 45.3325 13.814C45.5281 13.7962 45.7058 13.7695 45.8658 13.734C46.0258 13.6807 46.2036 13.654 46.3992 13.654C46.4169 13.654 46.4081 13.7073 46.3725 13.814C46.3369 13.9207 46.2925 14.0362 46.2392 14.1607C46.2036 14.2851 46.1592 14.4095 46.1058 14.534C46.0525 14.6407 46.0258 14.7029 46.0258 14.7207C45.9369 14.9162 45.8481 15.1029 45.7592 15.2807C45.6881 15.4584 45.6258 15.6451 45.5725 15.8407C45.4481 16.3207 45.3414 16.8007 45.2525 17.2807C45.1814 17.7607 45.1014 18.2407 45.0125 18.7207C44.8703 19.5029 44.7192 20.2673 44.5592 21.014C44.3992 21.7607 44.1592 22.4984 43.8392 23.2273C43.5903 23.7962 43.2614 24.3473 42.8525 24.8807C42.4436 25.414 41.9814 25.8762 41.4658 26.2673C40.9503 26.6584 40.3814 26.9607 39.7592 27.174C39.1369 27.3695 38.4881 27.414 37.8125 27.3073ZM58.6092 27.2273C58.4136 27.1918 58.2269 27.1651 58.0492 27.1473C57.8892 27.1118 57.7203 27.0673 57.5425 27.014C57.0625 26.8718 56.6269 26.6407 56.2358 26.3207C55.8625 26.0007 55.5692 25.6362 55.3558 25.2273C55.1603 24.8007 55.0625 24.3473 55.0625 23.8673C55.0625 23.3873 55.1869 22.9073 55.4358 22.4273C55.6314 22.0895 55.8892 21.8229 56.2092 21.6273C56.5469 21.4318 56.9114 21.334 57.3025 21.334C57.5869 21.334 57.8358 21.414 58.0492 21.574C58.2625 21.7162 58.4314 21.9029 58.5558 22.134C58.6803 22.3651 58.7514 22.614 58.7692 22.8807C58.8047 23.1473 58.7781 23.4051 58.6892 23.654C58.6536 23.7784 58.5914 23.894 58.5025 24.0007C58.4136 24.1073 58.3247 24.214 58.2358 24.3207C58.1469 24.4273 58.0669 24.5429 57.9958 24.6673C57.9247 24.774 57.8892 24.8895 57.8892 25.014C57.8892 25.3162 57.9781 25.5651 58.1558 25.7607C58.3336 25.9384 58.5469 26.0718 58.7958 26.1607C59.0625 26.2495 59.3381 26.3118 59.6225 26.3473C59.9247 26.3651 60.1825 26.374 60.3958 26.374C61.1603 26.3562 61.8803 26.1962 62.5558 25.894C63.2492 25.5918 63.8892 25.2184 64.4758 24.774C65.0803 24.3118 65.6403 23.7962 66.1558 23.2273C66.6714 22.6584 67.1425 22.0895 67.5692 21.5207C67.8536 21.1473 68.1292 20.774 68.3958 20.4007C68.6625 20.0273 68.9381 19.6629 69.2225 19.3073C69.6314 18.774 70.0047 18.1962 70.3425 17.574C70.6981 16.934 71.0181 16.3029 71.3025 15.6807C71.6581 14.8984 72.0669 14.1518 72.5292 13.4407C72.9914 12.7118 73.4536 11.9918 73.9158 11.2807C74.5736 10.2673 75.2669 9.29843 75.9958 8.37398C76.7425 7.43176 77.5958 6.58732 78.5558 5.84065C79.0003 5.50287 79.4625 5.20065 79.9425 4.93398C80.4403 4.66732 80.9469 4.42732 81.4625 4.21398C81.9603 4.01843 82.3869 3.93843 82.7425 3.97398C83.0981 4.00954 83.2758 4.15176 83.2758 4.40065C83.2758 4.57843 83.2225 4.70287 83.1158 4.77398C83.0269 4.84509 82.8581 4.88954 82.6092 4.90732C82.3425 4.9251 82.0936 4.99621 81.8625 5.12065C81.6314 5.2451 81.4181 5.39621 81.2225 5.57398C81.0269 5.75176 80.8492 5.95621 80.6892 6.18732C80.5292 6.40065 80.3869 6.61398 80.2625 6.82732C79.9069 7.41398 79.5514 8.00954 79.1958 8.61398C78.8403 9.20065 78.5203 9.8051 78.2358 10.4273C77.9692 10.9962 77.6669 11.5562 77.3292 12.1073C77.0092 12.6407 76.7247 13.1918 76.4758 13.7607C75.8892 15.0229 75.2492 16.2584 74.5558 17.4673C73.8803 18.6584 73.1158 19.8051 72.2625 20.9073C71.7825 21.5295 71.2758 22.1162 70.7425 22.6673C70.2092 23.1829 69.6492 23.6629 69.0625 24.1073C68.4758 24.5518 67.8536 24.9518 67.1958 25.3073C66.1825 25.8229 65.1603 26.2673 64.1292 26.6407C63.0981 26.9962 62.0136 27.2095 60.8758 27.2807C60.5025 27.2984 60.1203 27.3073 59.7292 27.3073C59.3558 27.3073 58.9825 27.2807 58.6092 27.2273ZM65.0092 17.254C64.9736 17.2362 64.9381 17.2273 64.9025 17.2273C64.8669 17.2095 64.8314 17.1918 64.7958 17.174C64.2981 17.014 63.8536 16.8007 63.4625 16.534C63.0714 16.2495 62.7869 15.8495 62.6092 15.334C62.3781 14.6584 62.2892 13.9651 62.3425 13.254C62.4136 12.5429 62.5647 11.8495 62.7958 11.174C62.9203 10.854 63.0536 10.5429 63.1958 10.2407C63.3381 9.92065 63.4981 9.60954 63.6758 9.30732C64.1914 8.40065 64.8047 7.57398 65.5158 6.82732C66.2447 6.06287 67.0269 5.37843 67.8625 4.77398C68.4136 4.36509 68.9736 3.98287 69.5425 3.62732C70.1292 3.27176 70.7336 2.95176 71.3558 2.66732C72.1025 2.31176 72.8581 2.00954 73.6225 1.76065C74.4047 1.49398 75.1958 1.26287 75.9958 1.06732C77.2047 0.765095 78.4581 0.622872 79.7558 0.64065C81.0536 0.64065 82.2892 0.845095 83.4625 1.25398C84.5114 1.62732 85.4181 2.23176 86.1825 3.06732C86.9647 3.90287 87.4625 4.87176 87.6758 5.97398C87.7825 6.54287 87.8092 7.12065 87.7558 7.70732C87.7025 8.13398 87.6047 8.58732 87.4625 9.06732C87.3381 9.52954 87.1781 9.95621 86.9825 10.3473C86.7869 10.7384 86.5292 11.1384 86.2092 11.5473C85.8003 12.134 85.3203 12.6318 84.7692 13.0407C84.2181 13.4495 83.6225 13.8051 82.9825 14.1073C82.4136 14.3918 81.8092 14.5873 81.1692 14.694C80.5292 14.8007 79.8981 14.8895 79.2758 14.9607C79.0981 14.9784 78.8936 14.9962 78.6625 15.014C78.4492 15.0318 78.2358 15.0229 78.0225 14.9873C77.8269 14.934 77.6403 14.854 77.4625 14.7473C77.2847 14.6407 77.1603 14.4807 77.0892 14.2673C77.0536 14.1784 77.0536 14.0718 77.0892 13.9473C77.1425 13.8051 77.2136 13.7162 77.3025 13.6807C77.4981 13.5918 77.6936 13.5918 77.8892 13.6807C78.1025 13.7518 78.2981 13.8051 78.4758 13.8407C79.1158 13.9829 79.7203 13.9473 80.2892 13.734C80.8581 13.5029 81.3825 13.1829 81.8625 12.774C82.3425 12.3473 82.7603 11.8584 83.1158 11.3073C83.4892 10.7562 83.7825 10.2229 83.9958 9.70732C84.2981 8.94287 84.4936 8.12509 84.5825 7.25398C84.6714 6.3651 84.5469 5.52954 84.2092 4.74732C83.9958 4.24954 83.7381 3.83176 83.4358 3.49398C83.1514 3.13843 82.7781 2.82732 82.3158 2.56065C81.9069 2.32954 81.4625 2.16065 80.9825 2.05398C80.5025 1.92954 80.0136 1.85843 79.5158 1.84065C79.0181 1.8051 78.5203 1.8051 78.0225 1.84065C77.5247 1.85843 77.0536 1.89398 76.6092 1.94732C75.7558 2.03621 74.9114 2.24065 74.0758 2.56065C73.2403 2.86287 72.4403 3.25398 71.6758 3.73398C70.9114 4.19621 70.1914 4.72954 69.5158 5.33398C68.8581 5.93843 68.2625 6.56954 67.7292 7.22732C67.4092 7.63621 67.0625 8.14287 66.6892 8.74732C66.3158 9.35176 66.0136 9.98287 65.7825 10.6406C65.5514 11.2807 65.4358 11.9295 65.4358 12.5873C65.4358 13.2273 65.6403 13.8051 66.0492 14.3207C66.2981 14.6407 66.5825 14.8629 66.9025 14.9873C67.2225 15.094 67.5514 15.1473 67.8892 15.1473C68.2269 15.1295 68.5647 15.0584 68.9025 14.934C69.2403 14.8095 69.5603 14.6673 69.8625 14.5073C69.9336 14.4718 70.0403 14.4095 70.1825 14.3207C70.3425 14.214 70.5025 14.134 70.6625 14.0807C70.8225 14.0095 70.9736 13.974 71.1158 13.974C71.2758 13.9562 71.3825 14.0095 71.4358 14.134C71.5069 14.294 71.4892 14.4629 71.3825 14.6407C71.2758 14.8184 71.1336 14.9962 70.9558 15.174C70.7958 15.3518 70.6181 15.5118 70.4225 15.654C70.2269 15.7784 70.0847 15.8762 69.9958 15.9473C69.4803 16.3029 68.9114 16.6051 68.2892 16.854C67.6847 17.1029 67.0714 17.2629 66.4492 17.334C65.9692 17.3873 65.4892 17.3607 65.0092 17.254ZM76.2304 27.254C76.1949 27.2362 76.1771 27.2273 76.1771 27.2273C75.8571 27.1207 75.5993 26.9518 75.4038 26.7207C75.226 26.4718 75.0926 26.1962 75.0037 25.894C74.9149 25.5918 74.8615 25.2807 74.8438 24.9607C74.8438 24.6229 74.8615 24.3118 74.8971 24.0273C74.9504 23.6007 75.0482 23.1562 75.1904 22.694C75.386 22.1073 75.6437 21.5384 75.9638 20.9873C76.4438 20.1873 76.9593 19.4229 77.5104 18.694C78.0615 17.9651 78.6926 17.2895 79.4037 16.6673C79.5993 16.4895 79.8038 16.3207 80.0171 16.1607C80.2304 16.0007 80.4526 15.8407 80.6838 15.6807C81.0215 15.4673 81.3593 15.2629 81.6971 15.0673C82.0526 14.8718 82.426 14.7029 82.8171 14.5607C83.1371 14.4362 83.4571 14.3118 83.7771 14.1873C84.1149 14.0629 84.4615 14.0007 84.8171 14.0007C84.9771 14.0184 85.1371 14.0362 85.2971 14.054C85.4749 14.0718 85.6438 14.1073 85.8038 14.1607C86.0526 14.2318 86.2215 14.374 86.3104 14.5873C86.4171 14.8007 86.5415 15.0051 86.6838 15.2007C86.666 15.1651 86.7015 15.0762 86.7904 14.934C86.8971 14.774 86.9682 14.6762 87.0037 14.6407C87.1104 14.4629 87.2704 14.3295 87.4838 14.2407C87.7504 14.134 88.0438 14.0895 88.3638 14.1073C88.7015 14.1251 89.0215 14.1251 89.3238 14.1073C89.466 14.1073 89.6082 14.0807 89.7504 14.0273C89.8926 13.9562 90.0349 13.9651 90.1771 14.054C90.266 14.1073 90.3193 14.1784 90.3371 14.2673C90.3549 14.3562 90.346 14.4451 90.3104 14.534C90.2749 14.6051 90.2304 14.6851 90.1771 14.774C90.1238 14.8629 90.0793 14.934 90.0438 14.9873C89.4926 15.8051 88.9771 16.6407 88.4971 17.494C88.0171 18.3295 87.5282 19.174 87.0304 20.0273C86.8882 20.2762 86.746 20.5251 86.6038 20.774C86.4615 21.0229 86.3104 21.2718 86.1504 21.5207C85.8304 22.0362 85.4926 22.5695 85.1371 23.1207C84.7815 23.6718 84.5326 24.2584 84.3904 24.8807C84.3549 24.9873 84.3371 25.1118 84.3371 25.254C84.3371 25.3962 84.4082 25.5029 84.5504 25.574C84.6571 25.6273 84.7815 25.6362 84.9237 25.6007C85.066 25.5473 85.2082 25.4762 85.3504 25.3873C85.4926 25.2807 85.626 25.174 85.7504 25.0673C85.8749 24.9607 85.9726 24.8807 86.0437 24.8273C86.4349 24.454 86.8082 24.0807 87.1638 23.7073C87.5193 23.334 87.8749 22.9429 88.2304 22.534C88.5326 22.1784 88.826 21.8229 89.1104 21.4673C89.3949 21.1118 89.6615 20.7384 89.9104 20.3473C89.946 20.294 89.9904 20.2229 90.0438 20.134C90.1149 20.0273 90.186 19.9473 90.2571 19.894C90.346 19.8229 90.426 19.7873 90.4971 19.7873C90.586 19.7695 90.666 19.814 90.7371 19.9207C90.7904 20.0095 90.7993 20.1073 90.7638 20.214C90.746 20.3029 90.7015 20.4007 90.6304 20.5073C90.5771 20.5962 90.5149 20.6851 90.4438 20.774C90.3726 20.8451 90.3104 20.9073 90.2571 20.9607C90.0793 21.174 89.9104 21.3962 89.7504 21.6273C89.5904 21.8584 89.4126 22.0807 89.2171 22.294C89.0926 22.4718 88.9593 22.6407 88.8171 22.8007C88.6926 22.9607 88.5593 23.1207 88.4171 23.2807C88.0971 23.654 87.7682 24.0273 87.4304 24.4007C87.1104 24.7562 86.7815 25.1118 86.4438 25.4673C86.2126 25.7162 85.9193 25.9918 85.5638 26.294C85.226 26.5784 84.8615 26.8184 84.4704 27.014C84.0793 27.1918 83.6882 27.2895 83.2971 27.3073C82.906 27.3251 82.5504 27.174 82.2304 26.854C81.9282 26.5695 81.7326 26.2229 81.6438 25.814C81.5726 25.4051 81.5815 25.0051 81.6704 24.614C81.706 24.5251 81.7415 24.4362 81.7771 24.3473C81.8126 24.2584 81.8215 24.1695 81.8038 24.0807C81.7149 24.0984 81.626 24.1607 81.5371 24.2673C81.466 24.3562 81.3949 24.4362 81.3238 24.5073C81.1815 24.6318 81.0482 24.7562 80.9237 24.8807C80.8171 25.0051 80.7015 25.1384 80.5771 25.2807C80.026 25.8673 79.4038 26.3562 78.7104 26.7473C78.3549 26.9607 77.9549 27.1295 77.5104 27.254C77.066 27.3607 76.6393 27.3607 76.2304 27.254ZM78.6838 25.3873C79.1638 25.1562 79.5904 24.8629 79.9637 24.5073C80.3549 24.134 80.7193 23.7429 81.0571 23.334C81.626 22.6229 82.1682 21.9029 82.6838 21.174C83.1993 20.4273 83.6793 19.654 84.1238 18.854C84.3193 18.4984 84.5149 18.1429 84.7104 17.7873C84.906 17.4318 85.0749 17.0584 85.2171 16.6673C85.2882 16.4362 85.3415 16.1873 85.3771 15.9207C85.4304 15.654 85.3771 15.414 85.2171 15.2007C85.0215 14.9518 84.7638 14.8629 84.4438 14.934C84.1238 15.0051 83.8482 15.1029 83.6171 15.2273C82.9771 15.5829 82.3993 16.0718 81.8837 16.694C81.386 17.3162 80.9238 17.9207 80.4971 18.5073C80.2482 18.8273 80.0171 19.1562 79.8038 19.494C79.5904 19.8318 79.3682 20.1695 79.1371 20.5073C78.906 20.8451 78.6926 21.1918 78.4971 21.5473C78.3015 21.9029 78.106 22.2673 77.9104 22.6407C77.8393 22.8007 77.7504 22.9784 77.6437 23.174C77.5549 23.3695 77.4749 23.574 77.4037 23.7873C77.3326 24.0007 77.2793 24.214 77.2438 24.4273C77.226 24.6229 77.2615 24.8095 77.3504 24.9873C77.4926 25.2895 77.6793 25.4673 77.9104 25.5207C78.1415 25.5562 78.3993 25.5118 78.6838 25.3873ZM89.8767 27.2273C89.6278 27.1562 89.3789 27.0229 89.13 26.8273C88.7033 26.5073 88.4278 26.1162 88.3033 25.654C88.1967 25.174 88.1789 24.6762 88.25 24.1607C88.3033 23.6451 88.4278 23.1384 88.6233 22.6407C88.8189 22.1429 89.0233 21.7073 89.2367 21.334C89.9122 20.0718 90.6322 18.8273 91.3967 17.6007C92.1789 16.374 92.9967 15.1829 93.85 14.0273C94.1167 13.7073 94.33 13.4051 94.49 13.1207C94.5433 13.014 94.5967 12.8895 94.65 12.7473C94.7211 12.6051 94.8189 12.5073 94.9433 12.454C94.8367 12.3651 94.6767 12.3207 94.4633 12.3207C94.25 12.3029 94.0456 12.294 93.85 12.294C93.6544 12.2762 93.4856 12.2318 93.3433 12.1607C93.2011 12.0895 93.1478 11.9473 93.1833 11.734C93.2189 11.5384 93.3167 11.4051 93.4767 11.334C93.6544 11.2629 93.8411 11.2273 94.0367 11.2273C94.25 11.2095 94.4544 11.2184 94.65 11.254C94.8633 11.2718 95.0322 11.2718 95.1567 11.254C95.4056 11.2184 95.6278 11.1295 95.8233 10.9873C96.0189 10.8451 96.1967 10.6762 96.3567 10.4806C96.5167 10.2673 96.6589 10.054 96.7833 9.84065C96.9078 9.60954 97.0233 9.39621 97.13 9.20065C97.3256 8.84509 97.5122 8.48954 97.69 8.13398C97.8856 7.77843 98.0633 7.41398 98.2233 7.04065C98.2767 6.89843 98.33 6.73843 98.3833 6.56065C98.4367 6.36509 98.49 6.17843 98.5433 6.00065C98.6144 5.8051 98.6856 5.62732 98.7567 5.46732C98.8456 5.28954 98.9522 5.14732 99.0767 5.04065C99.2189 4.93398 99.3878 4.86287 99.5833 4.82732C99.7789 4.79176 99.9833 4.77398 100.197 4.77398C100.41 4.77398 100.623 4.78287 100.837 4.80065C101.05 4.81843 101.246 4.80954 101.423 4.77398C101.637 4.73843 101.877 4.72065 102.143 4.72065C102.41 4.70287 102.614 4.81843 102.757 5.06732C102.846 5.2451 102.846 5.44954 102.757 5.68065C102.686 5.89398 102.614 6.08954 102.543 6.26732C102.401 6.67621 102.206 7.06732 101.957 7.44065C101.726 7.81398 101.494 8.19621 101.263 8.58732C101.014 9.01398 100.721 9.45843 100.383 9.92065C100.046 10.3651 99.8056 10.8362 99.6633 11.334C99.77 11.3695 99.9033 11.3873 100.063 11.3873C100.223 11.3695 100.383 11.3607 100.543 11.3607C100.721 11.3429 100.881 11.3429 101.023 11.3607C101.183 11.3607 101.317 11.3962 101.423 11.4673C101.548 11.574 101.566 11.734 101.477 11.9473C101.388 12.1607 101.281 12.3029 101.157 12.374C100.908 12.5162 100.623 12.5695 100.303 12.534C100.001 12.4807 99.7167 12.4629 99.45 12.4807C99.0767 12.4807 98.7833 12.5962 98.57 12.8273C98.3567 13.0407 98.1611 13.2984 97.9833 13.6007C97.1478 14.9518 96.3211 16.294 95.5033 17.6273C94.6856 18.9607 93.8233 20.2851 92.9167 21.6007C92.6856 21.9384 92.4722 22.2851 92.2767 22.6407C92.0811 22.9962 91.9389 23.3695 91.85 23.7607C91.7611 24.0629 91.7522 24.3207 91.8233 24.534C91.8944 24.7473 92.01 24.9073 92.17 25.014C92.33 25.1207 92.5256 25.1651 92.7567 25.1473C92.9878 25.1295 93.2367 25.0495 93.5033 24.9073C93.9656 24.6584 94.3656 24.3384 94.7033 23.9473C95.0589 23.5384 95.3967 23.1295 95.7167 22.7207C96.1078 22.2407 96.4811 21.7607 96.8367 21.2807C97.21 20.7829 97.5922 20.294 97.9833 19.814C98.0367 19.7607 98.1344 19.6362 98.2767 19.4407C98.4367 19.2451 98.6056 19.0584 98.7833 18.8807C98.9611 18.6851 99.13 18.534 99.29 18.4273C99.4678 18.3207 99.6011 18.3295 99.69 18.454C99.7789 18.5962 99.77 18.8007 99.6633 19.0673C99.5567 19.3162 99.4144 19.5829 99.2367 19.8673C99.0767 20.134 98.8989 20.3918 98.7033 20.6407C98.5256 20.8718 98.4011 21.0318 98.33 21.1207C97.9922 21.5829 97.6278 22.0273 97.2367 22.454C96.8633 22.8629 96.4811 23.2718 96.09 23.6807C95.7167 24.0718 95.2989 24.5162 94.8367 25.014C94.3922 25.5118 93.9033 25.9651 93.37 26.374C92.8367 26.7651 92.2767 27.0584 91.69 27.254C91.1033 27.4495 90.4989 27.4407 89.8767 27.2273Z" fill="#FDFDFD"/>
</svg>
