<svg width="25" height="29" viewBox="0 0 25 29" fill="none" xmlns="http://www.w3.org/2000/svg">
<path d="M22.3957 21.1826L15.4761 14.3576M9.52373 14.3576L2.60412 21.1826M2.08325 8.67007L10.5884 15.1714C11.2771 15.6978 11.6215 15.9611 11.996 16.063C12.3269 16.1531 12.6729 16.1531 13.0038 16.063C13.3784 15.9611 13.7227 15.6978 14.4115 15.1714L22.9166 8.67007M7.08325 23.4576H17.9166C19.6667 23.4576 20.5418 23.4576 21.2103 23.0856C21.7983 22.7585 22.2764 22.2364 22.576 21.5943C22.9166 20.8643 22.9166 19.9087 22.9166 17.9976V10.7176C22.9166 8.80639 22.9166 7.8508 22.576 7.12083C22.2764 6.47872 21.7983 5.95668 21.2103 5.62951C20.5418 5.25757 19.6667 5.25757 17.9166 5.25757H7.08325C5.33309 5.25757 4.45801 5.25757 3.78953 5.62951C3.20153 5.95668 2.72346 6.47872 2.42386 7.12083C2.08325 7.8508 2.08325 8.80639 2.08325 10.7176V17.9976C2.08325 19.9087 2.08325 20.8643 2.42386 21.5943C2.72346 22.2364 3.20153 22.7585 3.78953 23.0856C4.45801 23.4576 5.33309 23.4576 7.08325 23.4576Z" stroke="#FF8739" stroke-width="2" stroke-linecap="round" stroke-linejoin="round"/>
</svg>
