<svg width="60" height="60" viewBox="0 0 60 60" fill="none" xmlns="http://www.w3.org/2000/svg">
<path d="M7.5 18C7.5 15.1997 7.5 13.7996 8.04497 12.7301C8.52432 11.7892 9.28923 11.0243 10.2301 10.545C11.2996 10 12.6997 10 15.5 10H44.5C47.3002 10 48.7005 10 49.77 10.545C50.7108 11.0243 51.4757 11.7892 51.955 12.7301C52.5 13.7996 52.5 15.1997 52.5 18V50L44.1892 45.8445C43.5592 45.5295 43.2442 45.372 42.914 45.261C42.621 45.1625 42.3193 45.0913 42.013 45.0483C41.668 45 41.3158 45 40.6115 45H15.5C12.6997 45 11.2996 45 10.2301 44.455C9.28923 43.9757 8.52432 43.2108 8.04497 42.27C7.5 41.2005 7.5 39.8003 7.5 37V18Z" stroke="#d05e00" stroke-width="4" stroke-linecap="round" stroke-linejoin="round"/>
<path d="M21.0125 31.6875C21.1008 31.246 21.1449 31.0253 21.2256 30.8195C21.2973 30.6368 21.3902 30.4633 21.5024 30.3023C21.6289 30.121 21.7881 29.9618 22.1064 29.6435L32.5 19.2499C33.8807 17.8692 36.1193 17.8692 37.5 19.2499C38.8807 20.6306 38.8807 22.8692 37.5 24.2499L27.1065 34.6435C26.788 34.9618 26.629 35.121 26.4475 35.2475C26.2868 35.3598 26.113 35.4525 25.9302 35.5243C25.7245 35.605 25.5037 35.649 25.0625 35.7375L20 36.75L21.0125 31.6875Z" stroke="#d05e00" stroke-width="4" stroke-linecap="round" stroke-linejoin="round"/>
</svg>
