<svg width="61" height="61" viewBox="0 0 61 61" fill="none" xmlns="http://www.w3.org/2000/svg">
<g clip-path="url(#clip0_579_1688)">
<path d="M15.9603 0.960205C13.8978 0.960205 12.2103 2.64771 12.2103 4.71021V57.2102C12.2103 59.2727 13.8978 60.9602 15.9603 60.9602H53.4603C55.5228 60.9602 57.2103 59.2727 57.2103 57.2102V15.9602L42.2103 0.960205H15.9603Z" fill="#E2E5E7"/>
<path d="M45.9603 15.9602H57.2103L42.2103 0.960205V12.2102C42.2103 14.2727 43.8978 15.9602 45.9603 15.9602Z" fill="#B0B7BD"/>
<path d="M57.2103 27.2102L45.9603 15.9602H57.2103V27.2102Z" fill="#CAD1D8"/>
<path d="M49.7103 49.7102C49.7103 50.7415 48.8666 51.5852 47.8353 51.5852H6.58533C5.55408 51.5852 4.71033 50.7415 4.71033 49.7102V30.9602C4.71033 29.929 5.55408 29.0852 6.58533 29.0852H47.8353C48.8666 29.0852 49.7103 29.929 49.7103 30.9602V49.7102Z" fill="#F15642"/>
<path d="M12.8834 36.4859C12.8834 35.9909 13.2734 35.4509 13.9015 35.4509H17.3647C19.3147 35.4509 21.0697 36.7559 21.0697 39.2572C21.0697 41.6272 19.3147 42.9472 17.3647 42.9472H14.8615V44.9272C14.8615 45.5872 14.4415 45.9603 13.9015 45.9603C13.4065 45.9603 12.8834 45.5872 12.8834 44.9272V36.4859ZM14.8615 37.3391V41.0741H17.3647C18.3697 41.0741 19.1647 40.1872 19.1647 39.2572C19.1647 38.2091 18.3697 37.3391 17.3647 37.3391H14.8615Z" fill="white"/>
<path d="M24.0059 45.9603C23.5109 45.9603 22.9709 45.6903 22.9709 45.0322V36.5159C22.9709 35.9778 23.5109 35.5859 24.0059 35.5859H27.4391C34.2903 35.5859 34.1403 45.9603 27.5741 45.9603H24.0059ZM24.9509 37.4159V44.1322H27.4391C31.4872 44.1322 31.6672 37.4159 27.4391 37.4159H24.9509Z" fill="white"/>
<path d="M36.5703 37.5359V39.919H40.3934C40.9334 39.919 41.4734 40.459 41.4734 40.9821C41.4734 41.4771 40.9334 41.8821 40.3934 41.8821H36.5703V45.0302C36.5703 45.5552 36.1971 45.9584 35.6721 45.9584C35.0121 45.9584 34.609 45.5552 34.609 45.0302V36.514C34.609 35.9759 35.014 35.584 35.6721 35.584H40.9353C41.5953 35.584 41.9853 35.9759 41.9853 36.514C41.9853 36.994 41.5953 37.534 40.9353 37.534H36.5703V37.5359Z" fill="white"/>
<path d="M47.8353 51.5852H12.2103V53.4602H47.8353C48.8666 53.4602 49.7103 52.6165 49.7103 51.5852V49.7102C49.7103 50.7415 48.8666 51.5852 47.8353 51.5852Z" fill="#CAD1D8"/>
</g>
<defs>
<clipPath id="clip0_579_1688">
<rect width="60" height="60" fill="white" transform="translate(0.960327 0.960205)"/>
</clipPath>
</defs>
</svg>
