<svg width="30" height="34" viewBox="0 0 30 34" fill="none" xmlns="http://www.w3.org/2000/svg" >
<path d="M1.77899 31.5571C4.13439 33.8652 6.88471 33.8928 9.19779 31.6262C10.9044 29.954 12.6956 26.0152 14.0214 24.4673L17.0256 27.4248C18.1257 28.5166 19.4515 28.5166 20.5234 27.4663L22.3428 25.6696C23.4149 24.6055 23.4149 23.3478 22.3006 22.256L11.2852 11.4485C10.171 10.3567 8.8734 10.3429 7.78738 11.407L5.96794 13.2036C4.89601 14.2541 4.88192 15.5393 5.99615 16.6312L9.01444 19.5749C7.44888 20.8739 3.42918 22.6154 1.72258 24.2877C-0.590514 26.5541 -0.57641 29.2629 1.77899 31.5571ZM7.92842 14.4337L9.07085 13.3419C9.43756 12.9825 9.83249 12.9687 10.1992 13.3281L20.3966 23.3063C20.7491 23.6657 20.7491 24.0526 20.3683 24.4259L19.2682 25.5176C18.9015 25.9046 18.4783 25.9184 18.1116 25.5315L14.7407 22.2146C14.2188 21.7033 13.5418 21.7584 12.9496 22.3251C11.8494 23.3892 9.91711 27.9362 7.67454 30.1198C6.32054 31.4604 4.68445 31.4604 3.27404 30.0921C1.89182 28.724 1.87772 27.107 3.24583 25.7802C5.48839 23.5966 10.1287 21.7033 11.2147 20.6252C11.7789 20.031 11.8494 19.3676 11.3275 18.87L7.92842 15.5531C7.56171 15.1938 7.56171 14.793 7.92842 14.4337ZM5.43198 29.719C6.39106 29.719 7.16679 28.9451 7.16679 28.0053C7.16679 27.0655 6.39106 26.3054 5.43198 26.3054C4.47289 26.3054 3.68305 27.0655 3.68305 28.0053C3.68305 28.9451 4.47289 29.719 5.43198 29.719ZM22.1455 23.6243L28.8449 17.0596C30.4105 15.5255 30.3822 13.6874 28.7744 12.1119L17.7026 1.24907C16.2217 -0.202074 13.6547 0.364561 13.1329 2.61728C11.8212 8.20071 11.7648 8.86408 9.60682 11.8217L11.2288 13.411C13.6971 10.2461 13.8804 8.69825 15.2344 3.76437C15.4177 3.05954 16.0101 2.87986 16.4897 3.33594L27.0537 13.6736C27.7025 14.3093 27.7025 15.0833 27.0961 15.6775L20.5658 22.0764L22.1455 23.6243ZM19.917 15.7467C20.6645 16.4791 24.7829 14.2402 26.2075 12.4851L23.1046 9.45837C22.8365 11.9046 21.539 13.6736 19.9593 15.2215C19.7759 15.4011 19.7901 15.6222 19.917 15.7467Z" fill="#e67f2a" />
</svg>
