<svg width="25" height="28" viewBox="0 0 25 28" fill="none" xmlns="http://www.w3.org/2000/svg">
<path d="M8.72945 10.478C9.45445 12.1269 10.4428 13.6724 11.6944 15.0392C12.9461 16.406 14.3613 17.4852 15.8713 18.2769C16.0012 18.345 16.0662 18.379 16.1483 18.4052C16.4404 18.4982 16.799 18.4314 17.0463 18.238C17.1159 18.1836 17.1754 18.1186 17.2945 17.9885C17.6587 17.5909 17.8408 17.392 18.0239 17.262C18.7144 16.7718 19.6046 16.7718 20.2951 17.262C20.4782 17.392 20.6603 17.5909 21.0244 17.9885L21.2274 18.2102C21.781 18.8147 22.0578 19.117 22.2082 19.4416C22.5072 20.0872 22.5072 20.8496 22.2082 21.4952C22.0578 21.8198 21.781 22.1221 21.2274 22.7266L21.0632 22.9059C20.5115 23.5084 20.2357 23.8096 19.8607 24.0397C19.4445 24.2949 18.7982 24.4785 18.3208 24.4769C17.8907 24.4755 17.5967 24.3844 17.0087 24.2022C13.849 23.2228 10.8673 21.375 8.37985 18.6587C5.89237 15.9423 4.20021 12.6864 3.30337 9.23591C3.13649 8.59385 3.05305 8.27282 3.05177 7.80309C3.05035 7.28187 3.21843 6.57606 3.4522 6.12162C3.66288 5.71208 3.93872 5.41086 4.49041 4.80841L4.65462 4.6291C5.2082 4.02459 5.485 3.72233 5.78227 3.55814C6.37348 3.2316 7.07167 3.2316 7.66288 3.55814C7.96015 3.72233 8.23694 4.02459 8.79053 4.6291L8.99352 4.85077C9.35769 5.24845 9.53978 5.44728 9.65883 5.64723C10.1078 6.40127 10.1078 7.37336 9.65883 8.12739C9.53978 8.32734 9.35769 8.52618 8.99352 8.92386C8.87444 9.05389 8.81491 9.1189 8.76507 9.1949C8.58798 9.46498 8.52683 9.85657 8.61196 10.1755C8.63591 10.2652 8.66709 10.3361 8.72945 10.478Z" stroke="#FF8739" stroke-width="2" stroke-linecap="round" stroke-linejoin="round"/>
</svg>
