<svg width="30" height="31" viewBox="0 0 30 31" fill="none" xmlns="http://www.w3.org/2000/svg">
<path d="M15.625 4.2627H9.75C7.6498 4.2627 6.5997 4.2627 5.79754 4.67142C5.09193 5.03095 4.51825 5.60462 4.15873 6.31023C3.75 7.1124 3.75 8.1625 3.75 10.2627V20.7627C3.75 22.8629 3.75 23.913 4.15873 24.7152C4.51825 25.4208 5.09193 25.9944 5.79754 26.354C6.5997 26.7627 7.6498 26.7627 9.75 26.7627H21.25C22.4125 26.7627 22.9937 26.7627 23.4706 26.6349C24.7647 26.2882 25.7755 25.2774 26.1222 23.9833C26.25 23.5064 26.25 22.9252 26.25 21.7627M23.75 10.5127V3.0127M20 6.7627H27.5M13.125 11.1377C13.125 12.5184 12.0057 13.6377 10.625 13.6377C9.24429 13.6377 8.125 12.5184 8.125 11.1377C8.125 9.75698 9.24429 8.6377 10.625 8.6377C12.0057 8.6377 13.125 9.75698 13.125 11.1377ZM18.7375 15.4104L8.16394 25.0228C7.5692 25.5634 7.27184 25.8338 7.24553 26.0679C7.22274 26.2709 7.30057 26.4722 7.45398 26.6071C7.63097 26.7627 8.03285 26.7627 8.83661 26.7627H20.57C22.3689 26.7627 23.2684 26.7627 23.9749 26.4605C24.8618 26.0811 25.5684 25.3745 25.9478 24.4876C26.25 23.7811 26.25 22.8816 26.25 21.0827C26.25 20.4774 26.25 20.1747 26.1838 19.8929C26.1007 19.5387 25.9412 19.2069 25.7166 18.9207C25.5378 18.6929 25.3015 18.5039 24.8288 18.1258L21.3323 15.3285C20.8592 14.9501 20.6227 14.7609 20.3622 14.6941C20.1327 14.6352 19.8911 14.6428 19.6657 14.7161C19.4099 14.7991 19.1858 15.0029 18.7375 15.4104Z" stroke="#e67f2a" stroke-width="2" stroke-linecap="round" stroke-linejoin="round"/>
</svg>
