<svg width="60" height="54" viewBox="0 0 60 54" fill="none" xmlns="http://www.w3.org/2000/svg">
<path d="M56.25 0.75H32.6888C26.6063 0.75 20.7656 3.63187 17.0653 8.45906L5.00063 24.1941C2.38031 27.6122 0.9375 31.8656 0.9375 36.1734V50.4375C0.9375 51.9881 2.19937 53.25 3.75 53.25H56.25C57.8006 53.25 59.0625 51.9881 59.0625 50.4375V3.5625C59.0625 2.01187 57.8006 0.75 56.25 0.75ZM6.48844 25.335L18.5531 9.6C21.9009 5.23219 27.1856 2.625 32.6888 2.625H56.25C56.7666 2.625 57.1875 3.04594 57.1875 3.5625V42H2.8125V36.1734C2.8125 32.2762 4.11844 28.4269 6.48844 25.335ZM56.25 51.375H3.75C3.23344 51.375 2.8125 50.9541 2.8125 50.4375V47.625H6.5625V45.75H2.8125V43.875H57.1875V45.75H7.5V47.625H57.1875V50.4375C57.1875 50.9541 56.7666 51.375 56.25 51.375Z" fill="#e67f2a"/>
<path d="M53.4375 32.625H45.9375C44.9034 32.625 44.0625 33.4659 44.0625 34.5V36.375C44.0625 37.4091 44.9034 38.25 45.9375 38.25H53.4375C54.4716 38.25 55.3125 37.4091 55.3125 36.375V34.5C55.3125 33.4659 54.4716 32.625 53.4375 32.625ZM45.9375 34.5H49.6875V36.375H45.9375V34.5ZM53.4375 36.375H51.5625V34.5H53.4375V36.375Z" fill="#e67f2a"/>
<path d="M12.1875 30.75H17.8125H55.3125V4.5H32.7347C27.78 4.5 23.0344 6.85594 20.04 10.8028L12.0009 21.3938C10.5384 21.4922 9.375 22.7006 9.375 24.1875V27.9375C9.375 29.4881 10.6369 30.75 12.1875 30.75ZM21.5325 11.9363C24.1753 8.45344 28.3631 6.375 32.7347 6.375H53.4375V28.875H21.5381C22.1334 28.0894 22.5 27.1219 22.5 26.0625V21.375H14.3691L21.5325 11.9363ZM11.25 24.1875C11.25 23.6709 11.6709 23.25 12.1875 23.25H20.625V26.0625C20.625 27.6131 19.3631 28.875 17.8125 28.875H12.1875C11.6709 28.875 11.25 28.4541 11.25 27.9375V24.1875Z" fill="#e67f2a"/>
</svg>
