<svg width="25" height="28" viewBox="0 0 25 28" fill="none" xmlns="http://www.w3.org/2000/svg">
<path d="M5.20825 16.258C3.27975 17.187 2.08325 18.4816 2.08325 19.9135C2.08325 22.7405 6.74695 25.0322 12.4999 25.0322C18.2529 25.0322 22.9166 22.7405 22.9166 19.9135C22.9166 18.4816 21.7201 17.187 19.7916 16.258M18.7499 9.10723C18.7499 13.7297 14.0624 15.9322 12.4999 19.3447C10.9374 15.9322 6.24992 13.7297 6.24992 9.10723C6.24992 5.33788 9.04814 2.28223 12.4999 2.28223C15.9517 2.28223 18.7499 5.33788 18.7499 9.10723ZM13.5416 9.10723C13.5416 9.73545 13.0752 10.2447 12.4999 10.2447C11.9246 10.2447 11.4583 9.73545 11.4583 9.10723C11.4583 8.479 11.9246 7.96973 12.4999 7.96973C13.0752 7.96973 13.5416 8.479 13.5416 9.10723Z" stroke="#e67f2a" stroke-width="2" stroke-linecap="round" stroke-linejoin="round"/>
</svg>
