<svg width="35" height="36" viewBox="0 0 35 36" fill="none" xmlns="http://www.w3.org/2000/svg">
<path d="M9.24305 21.9556C9.41397 20.5404 9.99439 19.7481 11.0882 18.9358C12.6532 17.8357 14.6081 18.458 14.6081 18.458V14.7664C15.0833 14.7543 15.5588 14.7824 16.0289 14.8506V19.6013C16.0289 19.6013 14.0746 18.979 12.5096 20.0797C11.4164 20.8914 10.8348 21.6843 10.6644 23.0995C10.6591 23.868 10.8033 24.8725 11.4674 25.7411C11.3032 25.6569 11.1358 25.5609 10.9653 25.4532C9.5024 24.4709 9.23593 22.9971 9.24305 21.9556ZM24.1008 7.94068C23.0242 6.76097 22.6171 5.56988 22.4699 4.73315H23.8242C23.8242 4.73315 23.5542 6.92706 25.5221 9.08456L25.5494 9.11357C25.019 8.77993 24.5326 8.38612 24.1008 7.94068ZM30.6249 11.2853V15.9404C30.6249 15.9404 28.8967 15.8728 27.6177 15.5474C25.8319 15.0923 24.6842 14.3944 24.6842 14.3944C24.6842 14.3944 23.8913 13.8967 23.8272 13.862V23.4749C23.8272 24.0102 23.6806 25.3469 23.2337 26.4617C22.6503 27.9202 21.75 28.8775 21.5844 29.0732C21.5844 29.0732 20.4895 30.3672 18.5577 31.2386C16.8164 32.0247 15.2876 32.0048 14.8306 32.0247C14.8306 32.0247 12.1879 32.1294 9.80982 30.5839C9.29558 30.2433 8.81556 29.8575 8.37598 29.4315L8.38785 29.44C10.7665 30.9855 13.4087 30.8808 13.4087 30.8808C13.8662 30.8609 15.395 30.8808 17.1357 30.0947C19.0657 29.2233 20.1624 27.9293 20.1624 27.9293C20.3262 27.7336 21.2307 26.7763 21.8117 25.3173C22.2574 24.203 22.4052 22.8657 22.4052 22.3305V12.7187C22.4693 12.754 23.2616 13.2517 23.2616 13.2517C23.2616 13.2517 24.41 13.9502 26.1957 14.4047C27.4753 14.73 29.2029 14.7977 29.2029 14.7977V11.1499C29.794 11.2824 30.2979 11.3183 30.6249 11.2853Z" fill="#EE1D52"/>
<path d="M29.2036 11.1499V14.7966C29.2036 14.7966 27.476 14.7289 26.1964 14.4035C24.4106 13.9485 23.2623 13.2505 23.2623 13.2505C23.2623 13.2505 22.47 12.7528 22.4059 12.7176V22.3316C22.4059 22.8669 22.2593 24.2041 21.8124 25.3184C21.229 26.7774 20.3287 27.7347 20.1631 27.9304C20.1631 27.9304 19.0676 29.2245 17.1364 30.0959C15.3957 30.882 13.8669 30.8621 13.4093 30.882C13.4093 30.882 10.7672 30.9866 8.38852 29.4412L8.37665 29.4326C8.12552 29.1895 7.88912 28.9327 7.66863 28.6636C6.90957 27.7382 6.44429 26.6438 6.32737 26.3315C6.32717 26.3302 6.32717 26.3288 6.32737 26.3275C6.13924 25.7849 5.74398 24.4817 5.79799 23.2195C5.89354 20.9926 6.67693 19.6258 6.88405 19.2833C7.43261 18.3496 8.14607 17.5141 8.99268 16.8141C9.73977 16.2101 10.5866 15.7295 11.4983 15.3921C12.484 14.9959 13.5395 14.7835 14.6082 14.7664V18.458C14.6082 18.458 12.6533 17.838 11.0888 18.9358C9.99507 19.7481 9.41465 20.5404 9.24372 21.9556C9.2366 22.9971 9.50307 24.4709 10.9648 25.4538C11.1353 25.5619 11.3027 25.6578 11.4669 25.7416C11.7223 26.0736 12.0331 26.3628 12.3868 26.5977C13.8147 27.5015 15.0111 27.5647 16.5411 26.9777C17.5613 26.5852 18.3293 25.7007 18.6854 24.7206C18.9091 24.1086 18.9061 23.4925 18.9061 22.8555V4.73315H22.467C22.6142 5.56988 23.0213 6.76097 24.0979 7.94068C24.5297 8.38612 25.0162 8.77993 25.5466 9.11357C25.7032 9.27568 26.5044 10.0771 27.5329 10.5692C28.0647 10.8235 28.6253 11.0183 29.2036 11.1499V11.1499Z" fill="#1D1D1D"/>
<path d="M4.91016 25.1978V25.2006L4.99851 25.4401C4.98836 25.4122 4.95553 25.3274 4.91016 25.1978Z" fill="#69C9D0"/>
<path d="M11.4984 15.3921C10.5866 15.7295 9.73982 16.2101 8.99273 16.8141C8.14584 17.5156 7.43256 18.3529 6.8847 19.2884C6.67757 19.6297 5.89418 20.9977 5.79863 23.2246C5.74463 24.4868 6.13988 25.7899 6.32801 26.3326C6.32781 26.3339 6.32781 26.3353 6.32801 26.3366C6.44671 26.646 6.91022 27.7404 7.66927 28.6687C7.88976 28.9378 8.12616 29.1946 8.37729 29.4377C7.57265 28.9044 6.85504 28.2595 6.24789 27.5243C5.49536 26.6068 5.03127 25.5237 4.9102 25.2041C4.91005 25.2018 4.91005 25.1995 4.9102 25.1972V25.1933C4.72147 24.6512 4.32503 23.3475 4.38022 22.0836C4.47577 19.8567 5.25916 18.4898 5.46628 18.1474C6.01399 17.2117 6.72729 16.3745 7.57432 15.6731C8.32125 15.0689 9.16809 14.5883 10.08 14.251C10.6488 14.0249 11.2413 13.858 11.8474 13.7533C12.7607 13.6005 13.6935 13.5873 14.6112 13.7141V14.7664C13.5415 14.7832 12.485 14.9955 11.4984 15.3921Z" fill="#69C9D0"/>
<path d="M22.47 4.73307H18.9091V22.856C18.9091 23.493 18.9091 24.1074 18.6884 24.7211C18.3287 25.7006 17.5637 26.5851 16.5441 26.9776C15.0136 27.5669 13.8171 27.5014 12.3898 26.5976C12.0355 26.3638 11.7239 26.0755 11.4675 25.7444C12.6836 26.3661 13.772 26.3553 15.1204 25.8365C16.1394 25.4441 16.9056 24.5596 17.264 23.5795C17.4884 22.9675 17.4854 22.3514 17.4854 21.7149V3.58862H22.4024C22.4024 3.58862 22.3472 4.03912 22.47 4.73307ZM29.2036 10.1413V11.1498C28.6264 11.0181 28.0668 10.8232 27.5359 10.5691C26.5074 10.0771 25.7063 9.2756 25.5496 9.11349C25.7314 9.22789 25.92 9.33197 26.1146 9.4252C27.365 10.0236 28.5965 10.2022 29.2036 10.1413Z" fill="#69C9D0"/>
</svg>
