<svg width="60" height="53" viewBox="0 0 60 53" fill="none" xmlns="http://www.w3.org/2000/svg">
<path d="M57.0052 11.0471L49.1771 8.91219C48.5122 8.746 47.8473 8.58171 47.1824 8.52655L47.0422 8.30221C46.3306 7.18387 45.6188 6.06565 45.0088 4.84568L43.1789 1.18579C42.9755 0.779173 42.6705 0.575806 42.2639 0.575806C41.8573 0.575806 41.5523 0.779173 41.2473 1.08416L39.824 4.03233C39.3519 5.04417 38.8342 6.10056 38.213 7.11275C28.9953 6.19884 19.8741 6.82956 10.8498 8.91219L3.02168 11.0471C0.988363 11.6571 -0.333226 13.6904 0.0733895 15.7236L5.66498 45.5111C5.7666 45.8161 5.86834 46.1211 6.17333 46.2227C6.3767 46.3244 6.47832 46.3244 6.68169 46.3244C6.78332 46.3244 6.88506 46.3244 7.08831 46.3244C13.5063 44.0385 20.2096 42.7419 26.9513 42.4329L27.7721 45.0043C26.7028 45.7389 25.9979 46.9697 25.9979 48.3577C25.9979 50.5943 27.8278 52.4242 30.0644 52.4242C32.301 52.4242 34.1309 50.5943 34.1309 48.3577C34.1309 46.1211 32.301 44.2912 30.0644 44.2912C29.9444 44.2912 29.8259 44.2975 29.7084 44.3079L29.0894 42.3682C37.2332 42.2473 45.3953 43.5654 53.142 46.3245C53.3454 46.4261 53.6503 46.3245 53.9553 46.2229C54.2603 46.0195 54.3619 45.8163 54.4637 45.5113L59.9535 15.7237C60.2584 13.6903 59.0384 11.5554 57.0052 11.0471ZM32.0976 48.3577C32.0976 49.476 31.1826 50.391 30.0643 50.391C28.9459 50.391 28.031 49.476 28.031 48.3577C28.031 47.2393 28.9459 46.3244 30.0643 46.3244C31.1826 46.3244 32.0976 47.2393 32.0976 48.3577ZM41.7557 4.94731L42.264 3.82897L43.179 5.65891C43.789 6.9805 44.6023 8.09884 45.314 9.31881L45.5277 9.63929C45.56 9.8199 45.63 9.99622 45.7207 10.132C46.1273 10.742 46.3307 11.352 46.3307 11.962C46.3307 13.0663 45.8299 14.0863 45.0566 14.8732C45.0078 14.9203 44.9582 14.9667 44.9075 15.0119C43.8909 15.8252 42.6709 16.1302 41.4509 15.8252C39.5194 15.4186 38.1977 13.5887 38.2994 11.5554C38.2994 10.9454 38.5028 10.437 38.9094 9.92879C40.0274 8.30221 40.9423 6.57389 41.7557 4.94731ZM58.0218 15.317L52.6336 43.8844C45.3138 41.4445 37.6891 40.2245 30.0643 40.2245C29.5135 40.2245 28.9627 40.2323 28.4121 40.246L20.8129 16.4352C20.6095 15.9269 19.9996 15.6219 19.4913 15.8252C18.9831 16.0286 18.678 16.6386 18.8813 17.1468L26.2812 40.333C19.9249 40.6934 13.6038 41.9499 7.49504 43.9862L2.10682 15.4186C1.90346 14.402 2.51344 13.3853 3.53016 13.0803L11.3583 10.9454C19.7556 9.02311 28.2536 8.41027 36.8522 9.10567C36.5954 9.55101 36.4161 10.0242 36.2998 10.525C36.238 10.7558 36.1961 10.9945 36.1768 11.2408C36.1726 11.2779 36.168 11.3147 36.1642 11.352C36.1513 11.5455 36.1477 11.7377 36.1524 11.9282C36.1481 13.4983 36.7997 14.9583 37.8553 16.0406C37.8778 16.0642 37.9004 16.0877 37.9233 16.1108C37.932 16.1194 37.9407 16.128 37.9495 16.1366C38.7485 16.9361 39.7731 17.5149 40.9425 17.7567C42.874 18.1633 44.704 17.6551 46.1273 16.5367C47.5506 15.3168 48.3639 13.5884 48.3639 11.7585C48.3639 11.4741 48.3628 11.1025 48.2804 10.8062C48.2764 10.7849 48.273 10.7636 48.2688 10.7424C48.4675 10.7446 48.5695 10.8436 48.7705 10.8436L56.5986 12.9786C57.6152 13.2837 58.2252 14.3003 58.0218 15.317Z" fill="#e67f2a"/>
</svg>
